<?xml version="1.0" encoding="UTF-8" standalone="no"?>
<!-- Created with Inkscape (http://www.inkscape.org/) by Toomai Glittershine for SmashWiki -->
<svg id="svg2" xmlns:rdf="http://www.w3.org/1999/02/22-rdf-syntax-ns#" xmlns="http://www.w3.org/2000/svg" version="1.1" xmlns:cc="http://creativecommons.org/ns#" xmlns:dc="http://purl.org/dc/elements/1.1/" height="256" width="256" viewBox="0 0 256 256">
	<metadata id="metadata7">
		<rdf:RDF>
			<cc:Work rdf:about="">
				<dc:format>image/svg+xml</dc:format>
				<dc:type rdf:resource="http://purl.org/dc/dcmitype/StillImage"/>
				<dc:title/>
			</cc:Work>
		</rdf:RDF>
	</metadata>
	<path id="mainsymbolpath" style="opacity:0.5;fill:#000000;fill-opacity:1;stroke:none" d="m 95.03125,172.875 c 1.664815,3.8706 3.174966,3.56538 4.875,0.84375 l 2.5625,-4.09375 c 0.52789,-0.84511 0.78403,-1.87338 1.6875,0.6875 l 17.53125,49.71875 c 1.58378,4.48918 2.89161,2.65842 2.09375,-1.125 l -14.6875,-68.3125 c -0.73905,-3.44111 -2.7193,-4.2236 -4.0625,-2.375 l -1.78125,2.4375 c -0.98475,1.35528 -2.54822,2.9647 -3.125,-0.65625 l -2.75,-17.3125 c -0.739673,-4.64354 -0.576536,-6.18973 1.1875,-9.90625 7.1878,-15.14346 16.60182,-24.54586 26.125,-33.656252 2.06739,-1.977775 6.11183,-3.882274 6.53125,0.53125 0.24624,2.591026 2.65564,6.50561 6.21875,8.375 5.17907,2.717212 9.58123,6.737482 11.21875,8.375002 2.59881,2.59881 3.70465,5.98311 3.25,9.46875 L 150.5,126.46875 c -0.78518,6.01972 0.98626,9.66896 4.15625,11.96875 l 11.75,8.53125 c 0.68463,0.49669 1.12922,1.21045 1.03125,2.25 -0.15228,1.61579 -0.84946,2.69601 -2.125,2.75 -1.41948,0.0601 -1.88935,-1.52332 -1.78125,-2 0.18656,-0.82271 0.64094,-1.57097 -0.15625,-2.15625 l -5.6875,-4.1875 c -1.39121,-1.02139 -2.28876,-1.19456 -3,0.4375 l -3.875,8.875 c -2.8888,0.011 -5.38129,0.11541 -7.21875,0.5 -9.91117,2.07443 -16.51705,16.80558 -16.84375,18.5625 -1.58617,8.53015 1.77684,5.68013 4.40625,2.625 3.11895,-3.62392 6.9944,-4.53843 12.4375,-5.15625 l -10.75,24.71875 c -1.0145,2.32795 0.23919,3.97839 1.84375,1.4375 l 18.53125,-26.40625 c 1.91411,0.37899 4.2568,0.98668 6.9375,1.65625 l -9.78125,21.53125 c -0.69899,1.53447 -2.01541,3.99161 1.34375,3.84375 2.75789,-0.1214 5.16257,-1.07463 7.5625,-2.03125 l -7.84375,19.59375 c -1.67015,4.17538 0.97549,2.88056 2.625,0.53125 l 20.0625,-28.5625 c 1.98487,-2.82693 0.21862,-2.66629 -1.8125,-2.21875 l -4,0.875 c -2.82595,0.62267 -1.36712,-1.00353 0,-2.5625 2.46916,-2.81567 3.61955,-5.65308 4.9375,-8.46875 1.05935,0.11676 2.12573,0.21822 3.21875,0.28125 13.70915,0.79061 31.02196,-4.14755 40.4375,-19.5625 15.59934,-25.53896 0.0379,-63.194066 -9.46875,-71.906252 -1.61595,-1.480902 -2.97286,-2.226678 -5.28125,-1.625 -3.72387,0.970621 -10.97709,1.297112 -12.6875,0.21875 -1.73396,-1.093211 -6.31969,-7.733304 -10.0625,-9.90625 -3.80974,-13.635684 -11.01389,-28.634348 -23.5,-34.0625 -5.8411,-2.539332 -11.08336,-3.601066 -15.875,-3.59375 -10.54161,0.0161 -18.95049,5.179964 -26.875,11.15625 -12.11734,9.138315 -29.03125,29.5 -29.03125,29.5 -1.270304,1.310631 -1.218436,2.053948 -0.469,2.78075 1.41448,1.371762 1.22754,3.58418 0.0909,4.846205 -1.058025,1.17474 -2.687168,1.429884 -3.836117,1.326757 -3.425178,-0.307436 -6.569031,-4.886387 -11.850287,-5.662969 -6.576734,-0.967075 -9.857762,2.097396 -9.857762,2.097396 0,0 0.20974,-5.033751 -1.048698,-10.277241 -1.258437,-5.24349 -4.156268,-11.831151 -8.208547,-11.726281 -2.413477,0.06246 -3.012521,20.115865 -3.012521,20.115865 0,0 -4.719141,9.962631 -4.928881,11.011329 -0.209739,1.048698 -0.629218,12.374641 -0.629218,13.947681 0,1.57305 -2.202266,7.97011 -2.516876,10.69672 -0.314609,2.72662 -0.646088,7.99 -0.750958,9.24844 -0.104869,1.25843 -1.451307,2.81159 -1.661047,4.80412 -0.20974,1.99252 0.726409,6.10612 0.314609,6.9214 -0.656847,1.30043 -4.404531,2.41201 -4.404531,3.77532 0,1.3633 1.782787,3.04122 4.404531,2.72661 2.621745,-0.31461 3.880183,-1.99252 4.614272,-3.25096 0.734088,-1.25844 0.629218,-3.1461 1.153567,-3.77532 0.524349,-0.62921 4.307342,-1.28625 5.138621,-1.99252 1.18809,-1.00942 5.977578,-11.22107 6.711667,-11.43081 0.734088,-0.20974 4.21229,0.22321 5.890207,0.22321 1.677917,0 5.645471,-0.64269 5.645471,-0.64269 0,0 0.524349,2.62175 3.041224,3.67044 2.516875,1.0487 5.857372,0.2223 5.857372,0.2223 z M 181.625,80.562498 c 4.27045,1.526374 6.63048,5.370225 9.21875,9.21875 5.35325,7.959778 12.92688,35.072552 2.09375,51.437502 -2.58315,3.90221 -6.20487,6.49769 -10.3125,8.25 0.67248,-1.47926 1.29953,-3.1767 1.3125,-4.46875 0.0496,-4.94186 -6.37291,-6.95465 -6.6875,-18.0625 -0.32295,-11.40292 5.73617,-16.32561 5.75,-33.656252 0.002,-2.89866 -0.41692,-7.438118 -1.375,-12.71875 z m 1,36.437502 c -4.24592,5.40891 -3.31998,13.18805 0.5,18.03125 L 188.78125,125.25 z M 75.125,132.90625 75.5625,148.625 60.875,141.5 c -1.330209,-0.64495 -2.852947,-0.5744 -1.6875,2.09375 l 20.21875,46.34375 c 0.253735,0.5809 1.545077,2.02157 2.25,1.84375 0.758367,-0.1913 0.506121,-2.00058 0.21875,-3.03125 l -7.71875,-27.65625 c -0.389252,-1.39607 -0.262721,-1.96738 1.1875,-1.28125 0,0 4.735181,3.30665 6.90625,3.28125 1.467179,-0.0172 3.341332,-1.72872 3.90625,-2.59375 0.199662,-0.30573 0.06267,-2.09974 -0.125,-2.53125 z"/>
</svg>