<?xml version="1.0" encoding="utf-8"?>
<!-- Generator: Adobe Illustrator 15.1.0, SVG Export Plug-In . SVG Version: 6.00 Build 0)  -->
<!DOCTYPE svg PUBLIC "-//W3C//DTD SVG 1.1//EN" "http://www.w3.org/Graphics/SVG/1.1/DTD/svg11.dtd">
<svg version="1.1" xmlns="http://www.w3.org/2000/svg" xmlns:xlink="http://www.w3.org/1999/xlink" x="0px" y="0px" width="1500px"
	 height="200px" viewBox="0 0 1500 200" enable-background="new 0 0 1500 200" xml:space="preserve">
<g id="Layer_1" display="none">
</g>
<g id="Layer_2">
	<g>
		<path d="M217.5,62v6c0,23.2-18.8,42-42,42h-111v70h-27V85h138c9.37,0,17-7.63,17-17v-6c0-9.37-7.63-17-17-17h-138V20h138
			C198.7,20,217.5,38.8,217.5,62z"/>
		<g>
			<path d="M973.5,110h-20.63l62.63,70h-38.2l-62.84-70H862.5v70h-27V85h138c9.37,0,17-7.63,17-17v-6c0-9.37-7.63-17-17-17h-138V20
				h138c23.2,0,42,18.8,42,42v6C1015.5,91.201,996.7,110,973.5,110z"/>
		</g>
		<g>
			<path d="M317.5,20c-44.18,0-80,35.82-80,80c0,44.179,35.82,80,80,80c44.181,0,80-35.82,80-80C397.5,55.82,361.681,20,317.5,20z
				 M317.5,155.029c-30.39,0-55.029-24.639-55.029-55.029c0-30.38,24.64-55.02,55.029-55.02c30.391,0,55.03,24.64,55.03,55.02
				C372.53,130.391,347.891,155.029,317.5,155.029z"/>
			<path d="M307.249,89.758l-25.358,45.851l45.852-25.359L353.1,64.4L307.249,89.758z M295.524,121.975l15.65-28.291l12.641,12.641
				L295.524,121.975z"/>
		</g>
		<path d="M597.5,150v30h-138c-23.2,0-42-18.799-42-42V20h30v118c0,6.621,5.38,12,12,12H597.5z"/>
		<path d="M815.5,180h-32.75L716.5,53.76L650.25,180H617.5l78.58-147.709C700.6,22.17,706.56,20,716.5,20s15.9,2.17,20.42,12.29
			L815.5,180z"/>
		<rect x="1045.5" y="20" width="27" height="160"/>
		<polygon points="1262.5,20 1262.5,47 1196,47 1196,180 1169,180 1169,47 1102.5,47 1102.5,20 		"/>
		<g>
			<polygon points="1425.674,20 1462.5,20 1386.14,96.328 1386.14,180 1358.86,180 1358.86,84.929 			"/>
			<polygon points="1368.903,68.184 1353.809,82.848 1353.809,91.28 1282.5,20 1319.326,20 			"/>
		</g>
	</g>
</g>
</svg>
