<?xml version="1.0" encoding="utf-8"?>
<!-- Generator: Adobe Illustrator 15.1.0, SVG Export Plug-In . SVG Version: 6.00 Build 0)  -->
<!DOCTYPE svg PUBLIC "-//W3C//DTD SVG 1.1//EN" "http://www.w3.org/Graphics/SVG/1.1/DTD/svg11.dtd">
<svg version="1.1" xmlns="http://www.w3.org/2000/svg" xmlns:xlink="http://www.w3.org/1999/xlink" x="0px" y="0px"
	 width="378.898px" height="157.13px" viewBox="0 0 378.898 157.13" enable-background="new 0 0 378.898 157.13"
	 xml:space="preserve">
<g id="Layer_1">
	<g>
		<polygon fill="#FFFFFF" points="325.666,153.666 351.045,131 362.999,66.333 351.045,5 47.15,5 27.666,27 6.333,153.666 		"/>
		<g>
			<path fill="#4D4636" d="M44.398,0L25.331,21.65L1.442,157.131h36.25l298.338-0.5l19.067-21.652L378.898,0H44.398z
				 M39.162,151.629h-27.55l5.997-34.01h8.52l-4.495,25.49h19.03L39.162,151.629z M51.12,83.811H32.09L30.999,90h19.03l-1.502,8.52
				h-19.03l-1.902,10.79h-8.52l5.999-34.02h27.55L51.12,83.811z M58.822,40.13h-19.29l-3.472,19.689h19.29l-1.504,8.531h-22.04
				c-3.05,0-5.072-2.48-4.538-5.511l4.537-25.729c0.534-3.03,3.432-5.51,6.481-5.51h22.04L58.822,40.13z M46.362,151.629
				L57.206,90.13h218.63l37.826,61.499H46.362z M69.43,64.87c-4.29,0-7.155-3.49-6.398-7.78l3.089-17.521
				c0.755-4.279,4.85-7.77,9.14-7.77h31.1l-2.285,12.96h-25.92l-1.261,7.15h18.14c4.29,0,7.191,3.34,6.464,7.46l-2.964,16.81
				c-0.725,4.11-4.804,7.45-9.094,7.45h-31.09l2.285-12.96h25.91l1.023-5.8H69.43z M131.982,83.63h-9.03L120.047,49.4l-6.036,34.229
				h-11.92l9.139-51.83h18.74l1.255,30.71l11.145-30.71h20.09l-9.139,51.83h-13.25l6.036-34.229L131.982,83.63z M173.1,59.37
				l-4.278,24.26h-11.01l7.769-44.061c0.755-4.279,4.86-7.77,9.14-7.77h25.33c4.29,0,7.155,3.49,6.4,7.77l-7.769,44.061h-9.72
				l4.278-24.26H173.1z M243.781,71.61l-2.12,12.02h-31.1c-4.29,0-7.154-3.49-6.4-7.77l6.399-36.291
				c0.755-4.279,4.85-7.77,9.14-7.77h31.1l-2.121,12.03h-27.21l-4.898,27.78H243.781z M268.166,52.47l18.755-20.67h12.311
				l-19.745,20.67l-5.006,5.25l3.156,5.24l12.456,20.67h-16.2l-10.815-20.67l-3.645,20.67h-12.102l9.14-51.83h12.101l-3.645,20.67
				H268.166z M315.415,133.291L288.946,90.13h26.64l11.983-67.96H37.239L49.692,8.26h294.25l-14.436,81.87h27.6L315.415,133.291z"/>
			<polygon fill="#4D4636" points="195.148,41.229 193.776,49.01 174.926,49.01 176.298,41.229 			"/>
			<path fill="#4D4636" d="M96.875,95.86h-31.78l-8.457,47.96h31.78c3.97,0,7.758-3.221,8.458-7.191l5.921-33.579
				C103.498,99.08,100.845,95.86,96.875,95.86z M86.779,132.701H69.39l4.533-25.711h17.39L86.779,132.701z"/>
			<path fill="#4D4636" d="M141.825,95.86h-25.58c-3.97,0-7.768,3.22-8.468,7.189l-5.921,33.579c-0.7,3.971,1.962,7.191,5.932,7.191
				h25.58c3.97,0,7.768-3.221,8.468-7.191l5.921-33.579C148.458,99.08,145.795,95.86,141.825,95.86z M131.74,132.701h-18.39
				l4.533-25.711h18.39L131.74,132.701z"/>
			<polygon fill="#4D4636" points="207.267,95.85 218.827,95.85 197.298,143.82 183.048,143.82 181.59,115.399 171.019,143.82 
				155.469,143.82 152.167,95.85 165.017,95.85 167.269,127.541 180.697,95.85 189.457,95.85 192.529,127.541 			"/>
			<polygon fill="#4D4636" points="266.337,95.85 257.878,143.82 243.288,143.82 231.927,119.84 227.699,143.82 213.108,143.82 
				221.567,95.85 236.157,95.85 247.517,119.84 251.747,95.85 			"/>
			<polygon fill="#4D4636" points="218.827,95.85 197.298,143.82 183.048,143.82 181.59,115.399 171.019,143.82 155.469,143.82 
				152.167,95.85 165.017,95.85 167.269,127.541 180.697,95.85 189.457,95.85 192.529,127.541 207.267,95.85 			"/>
			<path fill="#4D4636" d="M96.875,95.86h-31.78l-8.457,47.96h31.78c3.97,0,7.758-3.221,8.458-7.191l5.921-33.579
				C103.498,99.08,100.845,95.86,96.875,95.86z M86.779,132.701H69.39l4.533-25.711h17.39L86.779,132.701z"/>
			<path fill="#4D4636" d="M141.825,95.86h-25.58c-3.97,0-7.768,3.22-8.468,7.189l-5.921,33.579c-0.7,3.971,1.962,7.191,5.932,7.191
				h25.58c3.97,0,7.768-3.221,8.468-7.191l5.921-33.579C148.458,99.08,145.795,95.86,141.825,95.86z M131.74,132.701h-18.39
				l4.533-25.711h18.39L131.74,132.701z"/>
			<polygon fill="#4D4636" points="266.337,95.85 257.878,143.82 243.288,143.82 231.927,119.84 227.699,143.82 213.108,143.82 
				221.567,95.85 236.157,95.85 247.517,119.84 251.747,95.85 			"/>
			<path fill="#4D4636" d="M96.875,95.86h-31.78l-8.457,47.96h31.78c3.97,0,7.758-3.221,8.458-7.191l5.921-33.579
				C103.498,99.08,100.845,95.86,96.875,95.86z M86.779,132.701H69.39l4.533-25.711h17.39L86.779,132.701z"/>
			<path fill="#4D4636" d="M141.825,95.86h-25.58c-3.97,0-7.768,3.22-8.468,7.189l-5.921,33.579c-0.7,3.971,1.962,7.191,5.932,7.191
				h25.58c3.97,0,7.768-3.221,8.468-7.191l5.921-33.579C148.458,99.08,145.795,95.86,141.825,95.86z M131.74,132.701h-18.39
				l4.533-25.711h18.39L131.74,132.701z"/>
			<polygon fill="#4D4636" points="207.267,95.85 218.827,95.85 197.298,143.82 183.048,143.82 181.59,115.399 171.019,143.82 
				155.469,143.82 152.167,95.85 165.017,95.85 167.269,127.541 180.697,95.85 189.457,95.85 192.529,127.541 			"/>
			<polygon fill="#4D4636" points="266.337,95.85 257.878,143.82 243.288,143.82 231.927,119.84 227.699,143.82 213.108,143.82 
				221.567,95.85 236.157,95.85 247.517,119.84 251.747,95.85 			"/>
		</g>
	</g>
</g>
<g id="Layer_3">
	<g>
		<path d="M16.545-166l-15.25,21.65V-8.869h36.25l298.25-0.5l15.25-21.652V-166H16.545z M38.045-14.371h-27.55v-34.01h8.52v25.49
			h19.03V-14.371z M38.045-82.189h-19.03V-76h19.03v8.52h-19.03v10.79h-8.52v-34.02h27.55V-82.189z M38.045-125.87h-19.29v19.689
			h19.29v8.531h-22.04c-3.05,0-5.51-2.48-5.51-5.511v-25.729c0-3.03,2.46-5.51,5.51-5.51h22.04V-125.87z M45.245-14.371V-75.87
			h218.63l48.67,61.499H45.245z M53.015-101.13c-4.29,0-7.77-3.49-7.77-7.78v-17.521c0-4.279,3.48-7.77,7.77-7.77h31.1v12.96h-25.92
			v7.15h18.14c4.29,0,7.78,3.34,7.78,7.46v16.81c0,4.11-3.49,7.45-7.78,7.45h-31.09v-12.96h25.91v-5.8H53.015z M118.875-82.37h-9.03
			l-8.94-34.229v34.229h-11.92v-51.83h18.74l6.67,30.71l5.73-30.71h20.09v51.83h-13.25V-116.6L118.875-82.37z M155.715-106.63v24.26
			h-11.01v-44.061c0-4.279,3.49-7.77,7.77-7.77h25.33c4.29,0,7.77,3.49,7.77,7.77v44.061h-9.72v-24.26H155.715z M228.555-94.39
			v12.02h-31.1c-4.29,0-7.77-3.49-7.77-7.77v-36.291c0-4.279,3.48-7.77,7.77-7.77h31.1v12.03h-27.21v27.78H228.555z M249.564-113.53
			l15.11-20.67h12.311l-16.101,20.67l-4.08,5.25l4.08,5.24l16.101,20.67h-16.2l-14.46-20.67v20.67h-12.101v-51.83h12.101v20.67
			H249.564z M311.064-32.709L276.985-75.87h26.64v-67.96H13.295l10-13.91h294.25v81.87h27.6L311.064-32.709z"/>
		<rect x="155.715" y="-124.771" width="18.85" height="7.78"/>
		<path d="M85.925-70.14h-31.78v47.96h31.78c3.97,0,7.19-3.221,7.19-7.191V-62.95C93.115-66.92,89.895-70.14,85.925-70.14z
			 M82.325-33.299h-17.39V-59.01h17.39V-33.299z"/>
		<path d="M130.875-70.14h-25.58c-3.97,0-7.2,3.22-7.2,7.189v33.579c0,3.971,3.23,7.191,7.2,7.191h25.58c3.97,0,7.2-3.221,7.2-7.191
			V-62.95C138.075-66.92,134.845-70.14,130.875-70.14z M127.285-33.299h-18.39V-59.01h18.39V-33.299z"/>
		<polygon points="196.315,-70.15 207.875,-70.15 194.805,-22.18 180.555,-22.18 174.085,-50.601 168.525,-22.18 152.975,-22.18 
			141.215,-70.15 154.065,-70.15 161.905,-38.459 169.745,-70.15 178.505,-70.15 187.165,-38.459 		"/>
		<polygon points="255.385,-70.15 255.385,-22.18 240.795,-22.18 225.205,-46.16 225.205,-22.18 210.615,-22.18 210.615,-70.15 
			225.205,-70.15 240.795,-46.16 240.795,-70.15 		"/>
		<polygon points="207.875,-70.15 194.805,-22.18 180.555,-22.18 174.085,-50.601 168.525,-22.18 152.975,-22.18 141.215,-70.15 
			154.065,-70.15 161.905,-38.459 169.745,-70.15 178.505,-70.15 187.165,-38.459 196.315,-70.15 		"/>
		<path d="M85.925-70.14h-31.78v47.96h31.78c3.97,0,7.19-3.221,7.19-7.191V-62.95C93.115-66.92,89.895-70.14,85.925-70.14z
			 M82.325-33.299h-17.39V-59.01h17.39V-33.299z"/>
		<path d="M130.875-70.14h-25.58c-3.97,0-7.2,3.22-7.2,7.189v33.579c0,3.971,3.23,7.191,7.2,7.191h25.58c3.97,0,7.2-3.221,7.2-7.191
			V-62.95C138.075-66.92,134.845-70.14,130.875-70.14z M127.285-33.299h-18.39V-59.01h18.39V-33.299z"/>
		<polygon points="255.385,-70.15 255.385,-22.18 240.795,-22.18 225.205,-46.16 225.205,-22.18 210.615,-22.18 210.615,-70.15 
			225.205,-70.15 240.795,-46.16 240.795,-70.15 		"/>
		<path d="M85.925-70.14h-31.78v47.96h31.78c3.97,0,7.19-3.221,7.19-7.191V-62.95C93.115-66.92,89.895-70.14,85.925-70.14z
			 M82.325-33.299h-17.39V-59.01h17.39V-33.299z"/>
		<path d="M130.875-70.14h-25.58c-3.97,0-7.2,3.22-7.2,7.189v33.579c0,3.971,3.23,7.191,7.2,7.191h25.58c3.97,0,7.2-3.221,7.2-7.191
			V-62.95C138.075-66.92,134.845-70.14,130.875-70.14z M127.285-33.299h-18.39V-59.01h18.39V-33.299z"/>
		<polygon points="196.315,-70.15 207.875,-70.15 194.805,-22.18 180.555,-22.18 174.085,-50.601 168.525,-22.18 152.975,-22.18 
			141.215,-70.15 154.065,-70.15 161.905,-38.459 169.745,-70.15 178.505,-70.15 187.165,-38.459 		"/>
		<polygon points="255.385,-70.15 255.385,-22.18 240.795,-22.18 225.205,-46.16 225.205,-22.18 210.615,-22.18 210.615,-70.15 
			225.205,-70.15 240.795,-46.16 240.795,-70.15 		"/>
	</g>
</g>
<g id="Layer_2">
	<g>
		<polygon fill="none" stroke="#000000" stroke-miterlimit="10" points="57.15,-249.833 57.15,-244.313 77.15,-244.313 
			77.15,-219.833 47.15,-219.833 47.15,-229.833 67.15,-229.833 67.15,-234.313 47.15,-234.313 47.15,-259.833 77.15,-259.833 
			77.15,-249.833 		"/>
		<polygon fill="none" stroke="#000000" stroke-miterlimit="10" points="102.85,-236.133 107.1,-259.833 122,-259.833 122,-219.833 
			112.17,-219.833 112.17,-246.253 106.17,-219.833 99.47,-219.833 92.84,-246.253 92.84,-219.833 84,-219.833 84,-259.833 
			97.9,-259.833 		"/>
		<polygon fill="none" stroke="#000000" stroke-miterlimit="10" points="342.676,-243.537 338.426,-219.836 326.526,-219.836 
			317.526,-259.836 327.356,-259.836 333.356,-233.417 339.356,-259.836 346.057,-259.836 352.687,-233.417 359.687,-259.836 
			368.526,-259.836 358.526,-219.836 347.627,-219.836 		"/>
		<polygon fill="none" stroke="#000000" stroke-miterlimit="10" points="157,-259.833 157,-219.833 149.5,-219.833 149.5,-238.553 
			135.5,-238.553 135.5,-219.833 127,-219.833 127,-259.833 		"/>
		<rect x="135.505" y="-252.549" fill="none" stroke="#000000" stroke-miterlimit="10" width="12.998" height="6"/>
		<polygon fill="none" stroke="#000000" stroke-miterlimit="10" points="169.17,-250.553 169.17,-229.113 190.17,-229.113 
			190.17,-219.833 160.17,-219.833 160.17,-259.833 190.17,-259.833 190.17,-250.553 		"/>
		<path fill="none" stroke="#000000" stroke-miterlimit="10" d="M250-259.836v40h30v-40H250z M271-229.116h-12v-21.44h12V-229.116z"
			/>
		<path fill="none" stroke="#000000" stroke-miterlimit="10" d="M284.333-259.836v40h30v-40H284.333z M305.333-229.116h-12v-21.44
			h12V-229.116z"/>
		<polygon fill="none" stroke="#000000" stroke-miterlimit="10" points="202.34,-235.783 202.34,-219.833 193,-219.833 
			193,-259.833 202.34,-259.833 202.34,-243.883 204.84,-243.883 216.5,-259.833 226,-259.833 213.58,-243.883 210.43,-239.833 
			213.58,-235.783 226,-219.833 213.5,-219.833 		"/>
		<polygon fill="none" stroke="#000000" stroke-miterlimit="10" points="413.33,-259.836 413.33,-219.836 400.33,-219.836 
			387.33,-239.836 387.33,-219.836 374.33,-219.836 374.33,-259.836 387.33,-259.836 400.33,-239.836 400.33,-259.836 		"/>
	</g>
</g>
</svg>
